<svg width="812" height="543" xmlns="http://www.w3.org/2000/svg">
 <!-- Created with Method Draw - http://github.com/duopixel/Method-Draw/ -->
 <g>
  <title>background</title>
  <rect fill="none" id="canvas_background" height="545" width="814" y="-1" x="-1"/>
 </g>
 <g>
  <title>Layer 1</title>
  <path stroke="null" id="svg_5" d="m649.382128,314.779c51.188636,0 92.675323,-39.800709 92.675323,-88.909088s-41.486688,-88.909088 -92.675323,-88.909088s-92.675323,39.800709 -92.675323,88.909088s41.486688,88.909088 92.675323,88.909088zm-86.883116,116.693178c0,9.23821 7.747078,16.670454 17.376623,16.670454s17.376623,-7.432244 17.376623,-16.670454s-7.747078,-16.670454 -17.376623,-16.670454s-17.376623,7.432244 -17.376623,16.670454zm181.296102,-105.301701l-24.906493,-3.959233l0,38.203124c26.426948,5.140057 46.337662,27.64517 46.337662,54.456816l0,38.897726c0,5.278977 -3.90974,9.863352 -9.339935,10.905255l-23.313636,4.445454c-3.113312,0.625142 -6.154221,-1.319744 -6.805844,-4.375994l-2.24448,-10.905255c-0.651623,-2.98679 1.375649,-5.973579 4.561364,-6.529261l13.973701,-2.708949l0,-29.798437c0,-20.560227 -19.476298,-36.813919 -41.703896,-32.715766c-16.507792,3.05625 -27.802597,17.920738 -27.802597,34.03551l0,28.478692l13.973701,2.708949c3.113312,0.625142 5.140584,3.542471 4.561364,6.529261l-2.24448,10.905255c-0.651623,2.98679 -3.692532,4.931676 -6.805844,4.375994l-22.58961,-2.917329c-5.719805,-0.764062 -9.991558,-5.417898 -9.991558,-11.044176l0,-40.286931c0,-26.811647 19.910714,-49.2473 46.337662,-54.456816l0,-32.785226c-14.190909,5.973579 -29.82987,9.446591 -46.337662,9.446591c-21.213961,0 -40.835064,-5.904119 -57.922077,-15.48963l0,72.863776c16.725,4.792756 28.961039,19.518323 28.961039,37.09176c0,21.46321 -18.173052,38.897726 -40.545454,38.897726s-40.545454,-17.434517 -40.545454,-38.897726c0,-17.573437 12.236039,-32.299005 28.961039,-37.09176l0,-70.432668l-13.322078,2.153267c-39.097402,6.25142 -67.76883,38.689345 -67.76883,76.753549l0,67.445879c0,12.29446 10.353571,22.227272 23.168831,22.227272l278.02597,0c12.81526,0 23.168831,-9.932812 23.168831,-22.227272l0,-67.445879c-0.072403,-38.064203 -28.743831,-70.502128 -67.841233,-76.753549z"/>
  <path fill="#ffffff" id="svg_7" d="m396.627162,287.131335c70.7,0 128,-57.3 128,-128s-57.3,-128 -128,-128s-128,57.3 -128,128s57.3,128 128,128zm-120,168c0,13.3 10.7,24 24,24s24,-10.7 24,-24s-10.7,-24 -24,-24s-24,10.7 -24,24zm250.4,-151.6l-34.4,-5.7l0,55c36.5,7.4 64,39.8 64,78.4l0,56c0,7.6 -5.4,14.2 -12.9,15.7l-32.2,6.4c-4.3,0.9 -8.5,-1.9 -9.4,-6.3l-3.1,-15.7c-0.9,-4.3 1.9,-8.6 6.3,-9.4l19.3,-3.9l0,-42.9c0,-29.6 -26.9,-53 -57.6,-47.1c-22.8,4.4 -38.4,25.8 -38.4,49l0,41l19.3,3.9c4.3,0.9 7.1,5.1 6.3,9.4l-3.1,15.7c-0.9,4.3 -5.1,7.1 -9.4,6.3l-31.2,-4.2c-7.9,-1.1 -13.8,-7.8 -13.8,-15.9l0,-58c0,-38.6 27.5,-70.9 64,-78.4l0,-47.2c-19.6,8.6 -41.2,13.6 -64,13.6c-29.3,0 -56.4,-8.5 -80,-22.3l0,104.9c23.1,6.9 40,28.1 40,53.4c0,30.9 -25.1,56 -56,56s-56,-25.1 -56,-56c0,-25.3 16.9,-46.5 40,-53.4l0,-101.4l-18.4,3.1c-54,9 -93.6,55.7 -93.6,110.5l0,97.1c0,17.7 14.3,32 32,32l384,0c17.7,0 32,-14.3 32,-32l0,-97.1c-0.1,-54.8 -39.7,-101.5 -93.7,-110.5z"/>
  <rect id="svg_12" height="49.999902" width="39" y="276.622574" x="473.025575" stroke-width="null" fill="#ffffff"/>
  <rect id="svg_14" height="49.999902" width="38.571353" y="300.908237" x="284.454536" stroke-width="null" fill="#ffffff"/>
  <path id="svg_19" d="m370.168644,306.622517" stroke-width="null" fill="#ffffff"/>
  <path stroke="null" id="svg_43" d="m162.109404,314.779013c51.188636,0 92.675324,-39.800709 92.675324,-88.909088s-41.486688,-88.909089 -92.675324,-88.909089s-92.675323,39.800709 -92.675323,88.909089s41.486688,88.909088 92.675323,88.909088zm-86.883115,116.693178c0,9.23821 7.747077,16.670454 17.376623,16.670454s17.376623,-7.432244 17.376623,-16.670454s-7.747078,-16.670454 -17.376623,-16.670454s-17.376623,7.432244 -17.376623,16.670454zm181.296101,-105.301701l-24.906493,-3.959233l0,38.203124c26.426948,5.140056 46.337662,27.645169 46.337662,54.456816l0,38.897726c0,5.278977 -3.909741,9.863352 -9.339935,10.905255l-23.313636,4.445455c-3.113312,0.625142 -6.154221,-1.319744 -6.805844,-4.375994l-2.244481,-10.905256c-0.651623,-2.986789 1.375649,-5.973579 4.561364,-6.529261l13.973701,-2.708949l0,-29.798436c0,-20.560227 -19.476299,-36.813919 -41.703896,-32.715766c-16.507792,3.05625 -27.802597,17.920738 -27.802597,34.03551l0,28.478692l13.973701,2.708949c3.113312,0.625142 5.140585,3.542472 4.561364,6.529261l-2.244481,10.905256c-0.651623,2.986789 -3.692532,4.931676 -6.805844,4.375994l-22.58961,-2.91733c-5.719805,-0.764062 -9.991558,-5.417897 -9.991558,-11.044175l0,-40.286931c0,-26.811647 19.910714,-49.2473 46.337662,-54.456816l0,-32.785227c-14.190909,5.97358 -29.82987,9.446591 -46.337662,9.446591c-21.213961,0 -40.835065,-5.904119 -57.922077,-15.48963l0,72.863776c16.725,4.792755 28.961038,19.518323 28.961038,37.09176c0,21.46321 -18.173051,38.897726 -40.545454,38.897726s-40.545454,-17.434516 -40.545454,-38.897726c0,-17.573437 12.236039,-32.299005 28.961039,-37.09176l0,-70.432668l-13.322078,2.153267c-39.097402,6.25142 -67.76883,38.689345 -67.76883,76.753548l0,67.445879c0,12.29446 10.353571,22.227272 23.168831,22.227272l278.02597,0c12.81526,0 23.168831,-9.932812 23.168831,-22.227272l0,-67.445879c-0.072403,-38.064203 -28.743831,-70.502128 -67.841233,-76.753548z"/>
  <ellipse ry="91.818182" rx="113.636364" id="svg_39" cy="373.636363" cx="293.351289" fill-opacity="null" stroke-opacity="null" stroke-width="null" stroke="null" fill="#ffffff"/>
  <ellipse ry="91.818182" rx="113.636364" id="svg_40" cy="373.636363" cx="522.442195" fill-opacity="null" stroke-opacity="null" stroke-width="null" stroke="null" fill="#ffffff"/>
  <rect id="svg_42" height="143.636364" width="145.454545" y="362.727271" x="490.624011" fill-opacity="null" stroke-opacity="null" stroke-width="null" stroke="null" fill="#ffffff"/>
  <rect stroke="null" id="svg_41" height="143.636364" width="158.181815" y="367.272725" x="175.169471" fill-opacity="null" stroke-opacity="null" stroke-width="null" fill="#ffffff"/>
  <path stroke="null" id="svg_1" d="m406.107459,276.753633c70.7,0 128,-57.3 128,-128s-57.3,-128 -128,-128s-128,57.3 -128,128s57.3,128 128,128zm-120,168c0,13.3 10.7,24 24,24s24,-10.7 24,-24s-10.7,-24 -24,-24s-24,10.7 -24,24zm250.4,-151.6l-34.4,-5.7l0,55c36.5,7.4 64,39.8 64,78.4l0,56c0,7.6 -5.4,14.2 -12.9,15.7l-32.2,6.4c-4.3,0.9 -8.5,-1.9 -9.4,-6.3l-3.1,-15.7c-0.9,-4.3 1.9,-8.6 6.3,-9.4l19.3,-3.9l0,-42.9c0,-29.6 -26.9,-53 -57.6,-47.1c-22.8,4.4 -38.4,25.8 -38.4,49l0,41l19.3,3.9c4.3,0.9 7.1,5.1 6.3,9.4l-3.1,15.7c-0.9,4.3 -5.1,7.1 -9.4,6.3l-31.2,-4.2c-7.9,-1.1 -13.8,-7.8 -13.8,-15.9l0,-58c0,-38.6 27.5,-70.9 64,-78.4l0,-47.2c-19.6,8.6 -41.2,13.6 -64,13.6c-29.3,0 -56.4,-8.5 -80,-22.3l0,104.9c23.1,6.9 40,28.1 40,53.4c0,30.9 -25.1,56 -56,56s-56,-25.1 -56,-56c0,-25.3 16.9,-46.5 40,-53.4l0,-101.4l-18.4,3.1c-54,9 -93.6,55.7 -93.6,110.5l0,97.1c0,17.7 14.3,32 32,32l384,0c17.7,0 32,-14.3 32,-32l0,-97.1c-0.1,-54.8 -39.7,-101.5 -93.7,-110.5z"/>
 </g>
</svg>